<svg width="512" height="512" xmlns="http://www.w3.org/2000/svg">

 <g>
  <title>background</title>
  <rect fill="none" id="canvas_background" height="236.97" width="236.97" y="-1" x="-1"/>
 </g>
 <g>
  <title>Layer 1</title>
  <circle id="svg_1" r="256" fill="#002D44" cy="256" cx="256"/>
  <polygon id="svg_4" points="228.716,287.899 203.038,287.899 219.088,194.676 244.767,194.676    " fill="#FFFFFF"/>
  <path id="svg_5" fill="#FFFFFF" d="m181.433,194.676l-24.483,64.117l-2.895,-13.807l0.002,0.005l-8.641,-41.919c0,0 -1.044,-8.396 -12.182,-8.396l-40.471,0l-0.473,1.577c0,0 12.38,2.433 26.861,10.659l22.31,80.987l26.755,0l40.856,-93.223l-27.639,0z"/>
  <path id="svg_6" fill="#FFFFFF" d="m383.418,287.899l23.578,0l-20.559,-93.223l-20.646,0c-9.533,0 -11.854,6.947 -11.854,6.947l-38.295,86.276l26.764,0l5.354,-13.847l32.646,0l3.012,13.847zm-28.257,-32.978l13.493,-34.886l7.59,34.886l-21.083,0z"/>
  <path id="svg_7" fill="#FFFFFF" d="m317.648,217.093l3.665,-20.022c0,0 -11.308,-4.064 -23.097,-4.064c-12.743,0 -43.006,5.268 -43.006,30.861c0,24.086 35.518,24.386 35.518,37.032c0,12.646 -31.856,10.386 -42.369,2.408l-3.821,20.928c0,0 11.466,5.267 28.989,5.267c17.521,0 43.961,-8.579 43.961,-31.915c0,-24.237 -35.838,-26.495 -35.838,-37.032c0.001,-10.539 25.009,-9.185 35.998,-3.463z"/>
  <path id="svg_8" fill="#FAA634" d="m154.058,244.991l-8.641,-41.919c0,0 -1.044,-8.396 -12.182,-8.396l-40.472,0l-0.473,1.577c0,0 19.453,3.811 38.114,18.086c17.836,13.645 23.654,30.652 23.654,30.652z"/>
  <path id="svg_9" fill="#FFFFFF" d="m361.976,325.544c0.937,1.762 2.31,3.1 4.112,4.012c1.801,0.913 3.696,1.369 5.684,1.369c3.209,0 5.873,-1.095 7.99,-3.286c2.114,-2.192 3.173,-4.954 3.173,-8.286c0,-3.304 -1.049,-6.038 -3.143,-8.201c-2.095,-2.163 -4.784,-3.247 -8.062,-3.247c-2.123,0 -4.046,0.478 -5.766,1.432c-1.723,0.954 -3.053,2.337 -3.99,4.148c-0.94,1.809 -1.408,3.684 -1.408,5.619c0.002,2.529 0.47,4.677 1.41,6.44z"/>
  <path id="svg_10" fill="#FFFFFF" d="m345.382,330.428l5.736,0l0,-6.803c0,-3.747 0.16,-6.208 0.48,-7.383s0.759,-1.987 1.315,-2.437c0.559,-0.449 1.24,-0.674 2.042,-0.674c0.828,0 1.726,0.318 2.694,0.954l1.776,-5.08c-1.212,-0.733 -2.469,-1.1 -3.776,-1.1c-0.927,0 -1.753,0.237 -2.48,0.706c-0.728,0.47 -1.549,1.444 -2.461,2.924l0,-3.131l-5.327,0l0,22.024l0.001,0z"/>
  <path id="svg_11" fill="#FFFFFF" d="m329.341,313.048l2.633,0l0,9.602c0,2.06 0.063,3.429 0.184,4.105c0.15,0.954 0.42,1.711 0.808,2.271c0.386,0.561 0.995,1.017 1.827,1.369c0.83,0.354 1.762,0.529 2.794,0.529c1.687,0 3.197,-0.291 4.531,-0.871l-0.488,-4.521c-1.008,0.373 -1.777,0.56 -2.306,0.56c-0.382,0 -0.706,-0.097 -0.969,-0.291c-0.265,-0.192 -0.435,-0.439 -0.51,-0.735c-0.075,-0.298 -0.114,-1.346 -0.114,-3.143l0,-8.876l3.918,0l0,-4.645l-3.918,0l0,-7.777l-5.755,3.401l0,4.376l-2.633,0l0,4.646l-0.002,0z"/>
  <path id="svg_12" fill="#FFFFFF" d="m310.024,327.877c1.886,2.032 4.412,3.048 7.582,3.048c2.791,0 5.015,-0.67 6.674,-2.012c1.661,-1.34 2.782,-3.325 3.367,-5.951l-5.633,-0.975c-0.284,1.534 -0.774,2.616 -1.47,3.245c-0.694,0.629 -1.583,0.944 -2.672,0.944c-1.457,0 -2.616,-0.539 -3.481,-1.617c-0.864,-1.078 -1.294,-2.925 -1.294,-5.538c0,-2.35 0.424,-4.026 1.276,-5.029c0.849,-1.002 1.99,-1.504 3.417,-1.504c1.075,0 1.949,0.291 2.624,0.871c0.672,0.582 1.104,1.446 1.294,2.592l5.655,-1.036c-0.68,-2.364 -1.799,-4.124 -3.359,-5.279c-1.558,-1.153 -3.657,-1.731 -6.295,-1.731c-3.226,0 -5.784,1.014 -7.674,3.039c-1.893,2.025 -2.838,4.855 -2.838,8.492c0.001,3.596 0.943,6.408 2.827,8.441z"/>
  <path id="svg_13" fill="#FFFFFF" d="m285.687,327.171c1.811,2.503 4.599,3.753 8.369,3.753c2.381,0 4.363,-0.556 5.949,-1.668c1.585,-1.114 2.745,-2.735 3.478,-4.864l-5.713,-0.975c-0.315,1.107 -0.777,1.908 -1.389,2.406c-0.611,0.497 -1.366,0.747 -2.264,0.747c-1.32,0 -2.424,-0.481 -3.308,-1.442s-1.347,-2.304 -1.388,-4.034l14.368,0c0.081,-4.464 -0.808,-7.779 -2.674,-9.942c-1.862,-2.163 -4.408,-3.247 -7.633,-3.247c-2.871,0 -5.243,1.034 -7.121,3.1c-1.879,2.068 -2.818,4.925 -2.818,8.575c0.001,3.057 0.717,5.586 2.144,7.591z"/>
  <rect id="svg_14" y="300.026" x="273.606" width="5.735" height="30.402" fill="#FFFFFF"/>
  <polygon id="svg_15" points="245.767,330.428 268.523,330.428 268.523,325.305 251.81,325.305 251.81,317.031 266.831,317.031     266.831,311.909 251.81,311.909 251.81,305.169 267.952,305.169 267.952,300.026 245.767,300.026   " fill="#FFFFFF"/>
  <path id="svg_16" fill="#FFFFFF" d="m407.14,316.74c0,-1.701 -0.107,-3.007 -0.316,-3.92c-0.212,-0.911 -0.585,-1.728 -1.123,-2.447c-0.539,-0.718 -1.332,-1.31 -2.378,-1.772c-1.048,-0.463 -2.204,-0.696 -3.47,-0.696c-2.871,0 -5.254,1.245 -7.145,3.733l0,-3.235l-5.325,0l0,22.024l5.735,0l0,-9.976c0,-2.459 0.145,-4.147 0.439,-5.06c0.293,-0.912 0.832,-1.644 1.622,-2.197c0.788,-0.553 1.679,-0.83 2.674,-0.83c0.774,0 1.439,0.194 1.99,0.58c0.551,0.388 0.947,0.93 1.194,1.629c0.245,0.697 0.367,2.235 0.367,4.614l0,11.24l5.735,0l0,-13.687l0.001,0z"/>
  <path id="svg_17" fill="#002D44" d="m293.83,312.365c1.172,0 2.163,0.439 2.981,1.316c0.816,0.879 1.243,2.162 1.284,3.847l-8.572,0c-0.012,-1.59 0.388,-2.847 1.204,-3.774c0.819,-0.927 1.853,-1.389 3.103,-1.389z"/>
  <path id="svg_18" fill="#002D44" d="m371.752,312.655c1.495,0 2.752,0.58 3.765,1.742c1.014,1.162 1.519,2.82 1.519,4.976c0,2.212 -0.505,3.9 -1.519,5.061c-1.014,1.16 -2.27,1.742 -3.765,1.742c-1.498,0 -2.755,-0.582 -3.776,-1.742c-1.021,-1.162 -1.531,-2.835 -1.531,-5.019c0,-2.184 0.51,-3.857 1.531,-5.019c1.02,-1.161 2.278,-1.741 3.776,-1.741z"/>
 </g>
</svg>